<svg height="512pt" viewBox="-6 0 512 512" width="512pt" xmlns="http://www.w3.org/2000/svg"><path d="m443.238281 7.789062v218.949219c0 4.300781-3.488281 7.792969-7.789062 7.792969h-371.605469c-4.296875 0-7.789062-3.492188-7.789062-7.792969v-218.949219c0-4.300781 3.492187-7.789062 7.789062-7.789062h371.605469c4.300781 0 7.789062 3.488281 7.789062 7.789062zm0 0" fill="#e3f4ff"/><path d="m443.238281 7.789062v218.949219c0 4.300781-3.488281 7.792969-7.789062 7.792969h-23.113281c4.300781 0 7.789062-3.492188 7.789062-7.792969v-218.949219c0-4.300781-3.488281-7.789062-7.789062-7.789062h23.113281c4.300781 0 7.789062 3.488281 7.789062 7.789062zm0 0" fill="#bddff4"/><path d="m443.238281 7.789062v47.96875h-387.183593v-47.96875c0-4.300781 3.492187-7.789062 7.789062-7.789062h371.605469c4.300781 0 7.789062 3.488281 7.789062 7.789062zm0 0" fill="#27e6fc"/><path d="m443.238281 7.789062v47.96875h-23.113281v-47.96875c0-4.300781-3.488281-7.789062-7.789062-7.789062h23.113281c4.300781 0 7.789062 3.488281 7.789062 7.789062zm0 0" fill="#06c7f4"/><path d="m469.488281 107.042969v248.636719c0 4.882812-3.964843 8.84375-8.847656 8.84375h-421.988281c-4.882813 0-8.847656-3.960938-8.847656-8.84375v-248.636719c0-4.882813 3.964843-8.847657 8.847656-8.847657h421.988281c4.882813 0 8.847656 3.964844 8.847656 8.847657zm0 0" fill="#e3f4ff"/><path d="m469.488281 107.042969v248.636719c0 4.882812-3.964843 8.84375-8.847656 8.84375h-26.25c4.882813 0 8.847656-3.960938 8.847656-8.84375v-248.636719c0-4.882813-3.960937-8.847657-8.847656-8.847657h26.25c4.882813 0 8.847656 3.964844 8.847656 8.847657zm0 0" fill="#bddff4"/><path d="m469.488281 107.042969v54.46875h-439.679687v-54.46875c0-4.882813 3.960937-8.847657 8.84375-8.847657h421.988281c4.882813 0 8.847656 3.964844 8.847656 8.847657zm0 0" fill="#fdb659"/><path d="m469.488281 107.042969v54.46875h-26.25v-54.46875c0-4.882813-3.960937-8.847657-8.847656-8.847657h26.25c4.882813 0 8.847656 3.964844 8.847656 8.847657zm0 0" fill="#fd9e28"/><path d="m499.292969 219.605469v282.347656c0 5.546875-4.5 10.046875-10.046875 10.046875h-479.199219c-5.546875 0-10.046875-4.5-10.046875-10.046875v-282.347656c0-5.546875 4.5-10.046875 10.046875-10.046875h479.199219c5.546875 0 10.046875 4.503906 10.046875 10.046875zm0 0" fill="#e3f4ff"/><path d="m499.292969 219.605469v282.347656c0 5.546875-4.5 10.046875-10.046875 10.046875h-29.804688c5.542969 0 10.046875-4.5 10.046875-10.046875v-282.347656c0-5.546875-4.503906-10.046875-10.046875-10.046875h29.804688c5.546875 0 10.046875 4.503906 10.046875 10.046875zm0 0" fill="#bddff4"/><path d="m499.292969 219.605469v61.855469h-499.292969v-61.855469c0-5.546875 4.5-10.046875 10.046875-10.046875h479.199219c5.546875 0 10.046875 4.503906 10.046875 10.046875zm0 0" fill="#fc3e81"/><g fill="#f01054"><path d="m499.292969 219.605469v61.855469h-29.804688v-61.855469c0-5.546875-4.503906-10.046875-10.046875-10.046875h29.804688c5.546875 0 10.046875 4.503906 10.046875 10.046875zm0 0"/><path d="m393.976562 244.445312h-18.082031c-4.269531 0-7.726562-3.457031-7.726562-7.726562 0-4.265625 3.457031-7.726562 7.726562-7.726562h18.082031c4.265626 0 7.726563 3.460937 7.726563 7.726562 0 4.269531-3.460937 7.726562-7.726563 7.726562zm0 0"/><path d="m393.976562 263.199219h-18.082031c-4.269531 0-7.726562-3.460938-7.726562-7.726563 0-4.269531 3.457031-7.726562 7.726562-7.726562h18.082031c4.265626 0 7.726563 3.457031 7.726563 7.726562 0 4.265625-3.460937 7.726563-7.726563 7.726563zm0 0"/><path d="m446.710938 245.382812 1.992187-1.988281c3.015625-3.015625 3.015625-7.910156 0-10.925781-3.019531-3.019531-7.910156-3.019531-10.929687 0l-1.988282 1.988281-1.988281-1.988281c-3.019531-3.019531-7.910156-3.019531-10.929687 0-3.015626 3.015625-3.015626 7.90625 0 10.925781l1.992187 1.988281-1.992187 1.992188c-3.015626 3.015625-3.015626 7.90625 0 10.925781 1.511718 1.507813 3.488281 2.261719 5.464843 2.261719 1.976563 0 3.953125-.753906 5.460938-2.261719l1.992187-1.992187 1.988282 1.992187c1.507812 1.507813 3.488281 2.261719 5.464843 2.261719 1.976563 0 3.953125-.753906 5.460938-2.261719 3.019531-3.019531 3.019531-7.910156 0-10.925781zm0 0"/></g><path d="m425.757812 129.851562 1.066407-1.066406c3.019531-3.015625 3.019531-7.90625 0-10.925781-3.015625-3.015625-7.90625-3.015625-10.925781 0l-1.066407 1.066406-1.066406-1.066406c-3.019531-3.015625-7.910156-3.015625-10.925781 0-3.019532 3.015625-3.019532 7.910156 0 10.925781l1.066406 1.066406-1.066406 1.070313c-3.019532 3.015625-3.019532 7.90625 0 10.925781 1.507812 1.507813 3.484375 2.261719 5.460937 2.261719 1.976563 0 3.957031-.753906 5.464844-2.261719l1.066406-1.070312 1.066407 1.070312c1.507812 1.507813 3.484374 2.261719 5.460937 2.261719 1.980469 0 3.957031-.753906 5.464844-2.261719 3.019531-3.019531 3.019531-7.910156 0-10.925781zm0 0" fill="#fd8724"/><path d="m394.019531 17.207031c-2.9375-2.933593-7.640625-3.007812-10.671875-.230469-3.035156-2.777343-7.738281-2.703124-10.671875.230469-2.9375 2.933594-3.007812 7.640625-.234375 10.671875-2.773437 3.03125-2.703125 7.734375.234375 10.671875 1.507813 1.507813 3.484375 2.261719 5.460938 2.261719 1.871093 0 3.734375-.683594 5.207031-2.03125 1.476562 1.347656 3.339844 2.03125 5.210938 2.03125 1.976562 0 3.953124-.753906 5.460937-2.261719 2.933594-2.9375 3.007813-7.640625.230469-10.671875 2.777344-3.03125 2.707031-7.738281-.226563-10.671875zm0 0" fill="#06c7f4"/><path d="m155.136719 137.578125h-74.925781c-4.265626 0-7.726563-3.457031-7.726563-7.726563 0-4.265624 3.460937-7.722656 7.726563-7.722656h74.925781c4.265625 0 7.726562 3.457032 7.726562 7.722656 0 4.269532-3.460937 7.726563-7.726562 7.726563zm0 0" fill="#fd8724"/><path d="m184.652344 35.605469h-74.921875c-4.269531 0-7.726563-3.460938-7.726563-7.726563s3.457032-7.726562 7.726563-7.726562h74.921875c4.269531 0 7.726562 3.460937 7.726562 7.726562s-3.457031 7.726563-7.726562 7.726563zm0 0" fill="#06c7f4"/><path d="m131.410156 254.925781h-74.921875c-4.269531 0-7.726562-3.460937-7.726562-7.726562 0-4.269531 3.457031-7.726563 7.726562-7.726563h74.921875c4.269532 0 7.726563 3.457032 7.726563 7.726563 0 4.265625-3.457031 7.726562-7.726563 7.726562zm0 0" fill="#f01054"/><path d="m124.070312 350.660156c0 15.535156-12.59375 28.128906-28.128906 28.128906s-28.128906-12.59375-28.128906-28.128906 12.59375-28.128906 28.128906-28.128906 28.128906 12.59375 28.128906 28.128906zm0 0" fill="#fc3e81"/><path d="m124.070312 439.773438c0 15.535156-12.59375 28.128906-28.128906 28.128906s-28.128906-12.59375-28.128906-28.128906c0-15.535157 12.59375-28.128907 28.128906-28.128907s28.128906 12.59375 28.128906 28.128907zm0 0" fill="#fc3e81"/><path d="m192.382812 342.5625h-27.125c-4.265624 0-7.726562-3.460938-7.726562-7.726562 0-4.269532 3.460938-7.726563 7.726562-7.726563h27.125c4.269532 0 7.726563 3.460937 7.726563 7.726563 0 4.269531-3.457031 7.726562-7.726563 7.726562zm0 0" fill="#93c0d1"/><path d="m380.246094 366.195312h-214.988282c-4.265624 0-7.726562-3.460937-7.726562-7.726562s3.460938-7.726562 7.726562-7.726562h214.988282c4.269531 0 7.726562 3.460937 7.726562 7.726562s-3.457031 7.726562-7.726562 7.726562zm0 0" fill="#93c0d1"/><path d="m192.382812 435.683594h-27.125c-4.265624 0-7.726562-3.457032-7.726562-7.726563 0-4.265625 3.460938-7.726562 7.726562-7.726562h27.125c4.269532 0 7.726563 3.460937 7.726563 7.726562 0 4.269531-3.457031 7.726563-7.726563 7.726563zm0 0" fill="#93c0d1"/><path d="m380.246094 459.316406h-214.988282c-4.265624 0-7.726562-3.457031-7.726562-7.726562 0-4.265625 3.460938-7.726563 7.726562-7.726563h214.988282c4.269531 0 7.726562 3.460938 7.726562 7.726563 0 4.269531-3.457031 7.726562-7.726562 7.726562zm0 0" fill="#93c0d1"/></svg>