<?xml version="1.0" encoding="iso-8859-1"?>
<!-- Generator: Adobe Illustrator 19.0.0, SVG Export Plug-In . SVG Version: 6.00 Build 0)  -->
<svg version="1.1" id="Layer_1" xmlns="http://www.w3.org/2000/svg" xmlns:xlink="http://www.w3.org/1999/xlink" x="0px" y="0px"
	 viewBox="0 0 512.001 512.001" style="enable-background:new 0 0 512.001 512.001;" xml:space="preserve">
<path style="fill:#FFD592;" d="M403.617,22.369L382.885,1.635C381.838,0.588,380.418,0,378.937,0c-1.48,0-2.9,0.589-3.948,1.635
	l-12.593,12.596c-1.055,1.054-2.459,1.634-3.949,1.634s-2.893-0.581-3.947-1.633L341.905,1.636c-1.089-1.09-2.517-1.634-3.946-1.634
	c-1.427,0-2.858,0.544-3.946,1.634l-12.595,12.595c-1.056,1.054-2.459,1.634-3.949,1.634c-1.491,0-2.894-0.581-3.948-1.633
	L300.927,1.636c-1.09-1.09-2.518-1.634-3.947-1.634c-1.428,0-2.857,0.544-3.947,1.634L280.44,14.232
	c-1.055,1.054-2.458,1.634-3.948,1.634c-1.491,0-2.894-0.581-3.948-1.633L259.948,1.635C258.858,0.546,257.429,0,256.001,0
	c-1.428,0-2.857,0.546-3.947,1.635L239.46,14.232c-1.056,1.054-2.46,1.634-3.949,1.634c-1.491,0-2.894-0.581-3.948-1.633
	L218.968,1.636c-1.047-1.048-2.466-1.634-3.947-1.634c-1.48,0-2.9,0.587-3.947,1.634L198.48,14.232
	c-1.055,1.054-2.458,1.634-3.949,1.634c-1.49,0-2.892-0.581-3.947-1.633L177.989,1.636c-1.088-1.09-2.517-1.634-3.944-1.634
	c-1.429,0-2.858,0.544-3.947,1.634l-12.595,12.595c-1.055,1.054-2.46,1.634-3.949,1.634c-1.491,0-2.894-0.581-3.948-1.633
	L137.011,1.636c-1.09-1.09-2.518-1.634-3.947-1.634c-1.427,0-2.857,0.544-3.947,1.634l-20.737,20.737
	c-1.467,1.466-2,3.626-1.383,5.606c10.979,35.268,28.501,100.924,35.723,179.623h225.815
	c6.826-73.045,22.921-136.408,36.463-179.618C405.619,26.002,405.087,23.838,403.617,22.369z"/>
<path style="fill:#FF675F;" d="M382.885,1.635C381.838,0.588,380.418,0,378.937,0c-1.48,0-2.9,0.589-3.948,1.635l-12.593,12.596
	c-1.055,1.054-2.459,1.634-3.949,1.634s-2.893-0.581-3.947-1.633L341.905,1.636c-1.089-1.09-2.517-1.634-3.946-1.634
	c-1.427,0-2.858,0.544-3.946,1.634l-12.595,12.595c-1.056,1.054-2.459,1.634-3.949,1.634c-1.491,0-2.894-0.581-3.948-1.633
	L300.927,1.636c-1.09-1.09-2.518-1.634-3.947-1.634c-1.428,0-2.857,0.544-3.947,1.634L280.44,14.232
	c-1.055,1.054-2.458,1.634-3.948,1.634c-1.491,0-2.894-0.581-3.948-1.633L259.948,1.635C258.858,0.546,257.429,0,256.001,0
	c-1.428,0-2.857,0.546-3.947,1.635L239.46,14.232c-1.056,1.054-2.46,1.634-3.949,1.634c-1.491,0-2.894-0.581-3.948-1.633
	L218.968,1.636c-1.047-1.048-2.466-1.634-3.947-1.634c-1.48,0-2.9,0.587-3.947,1.634L198.48,14.232
	c-1.055,1.054-2.458,1.634-3.949,1.634c-1.49,0-2.892-0.581-3.947-1.633L177.989,1.636c-1.088-1.09-2.517-1.634-3.944-1.634
	c-1.429,0-2.858,0.544-3.947,1.634l-12.595,12.595c-1.055,1.054-2.46,1.634-3.949,1.634c-1.491,0-2.894-0.581-3.948-1.633
	L137.011,1.636c-1.09-1.09-2.518-1.634-3.947-1.634c-1.427,0-2.857,0.544-3.947,1.634l-20.737,20.737
	c-1.467,1.466-2,3.626-1.383,5.606c5.385,17.304,12.348,41.922,18.896,71.805h39.854c1.207,0,2.189,0.981,2.189,2.188v25.709
	c0,6.937,5.642,12.581,12.58,12.581c6.938,0,12.581-5.643,12.581-12.581V90.487c0-0.451-0.033-0.945-0.101-1.507
	c-0.021-0.189-0.019-0.378,0.006-0.564c1.155-8.331,8.368-14.612,16.778-14.612c8.115,0,15.113,5.777,16.644,13.745
	c0.025,0.134,0.04,0.272,0.04,0.41v17.844c0,6.937,5.642,12.581,12.581,12.581s12.581-5.643,12.581-12.581v-3.829
	c0-1.206,0.98-2.188,2.188-2.188h131.94c6.185-27.545,12.989-51.829,19.247-71.8c0.622-1.982,0.089-4.147-1.38-5.615L382.885,1.635z
	"/>
<path style="opacity:0.1;enable-background:new    ;" d="M131.202,22.373l13.273-13.272l-7.464-7.465
	c-1.09-1.09-2.518-1.634-3.947-1.634c-1.427,0-2.857,0.544-3.947,1.634l-20.737,20.737c-1.467,1.466-2,3.626-1.383,5.606
	c10.979,35.268,28.501,100.924,35.723,179.623h22.822c-7.222-78.7-24.745-144.355-35.724-179.623
	C129.203,25.999,129.734,23.839,131.202,22.373z"/>
<path style="fill:#EF3E3B;" d="M358.707,53.519c4.392,0,7.953-3.56,7.953-7.953v-35.6l-4.263,4.265
	c-1.055,1.054-2.459,1.634-3.949,1.634s-2.893-0.581-3.947-1.633l-3.747-3.748v35.08C350.754,49.959,354.314,53.519,358.707,53.519z
	"/>
<g>
	<path style="fill:#F9BD6E;" d="M279.964,207.603h15.909v-37.367c0-4.393-3.561-7.953-7.954-7.953s-7.954,3.56-7.954,7.953v37.367
		H279.964z"/>
	<path style="fill:#F9BD6E;" d="M315.386,177.791v29.811h15.908v-29.811c0-4.393-3.561-7.953-7.953-7.953
		C318.946,169.839,315.386,173.399,315.386,177.791z"/>
	<path style="fill:#F9BD6E;" d="M201.915,207.603v-29.811c0-4.393-3.561-7.953-7.954-7.953s-7.954,3.56-7.954,7.953v29.811
		L201.915,207.603L201.915,207.603z"/>
</g>
<path style="fill:#5D89D8;" d="M233.26,377.279v61.946h45.483v-61.946c0.849-21.862,16.001-46.522,43.802-66.568
	c1.311-0.945,2.64-1.858,3.98-2.761H185.477c1.339,0.902,2.67,1.815,3.98,2.761C217.258,330.757,232.407,355.418,233.26,377.279z"/>
<rect x="233.262" y="398.754" style="fill:#543B93;" width="45.483" height="40.475"/>
<path style="opacity:0.1;enable-background:new    ;" d="M206.688,310.711c-1.309-0.945-2.64-1.858-3.979-2.761h-17.232
	c1.339,0.902,2.67,1.815,3.98,2.761c27.802,20.045,42.951,44.706,43.804,66.568v61.946h17.232v-61.946
	C249.64,355.418,234.49,330.757,206.688,310.711z"/>
<path style="fill:#4351B5;" d="M382.438,306.747c0,6.018-4.923,10.941-10.939,10.941H140.505c-6.018,0-10.941-4.924-10.941-10.941
	v-93.783c0-6.018,4.924-10.94,10.941-10.94h230.993c6.017,0,10.939,4.923,10.939,10.94L382.438,306.747L382.438,306.747z"/>
<rect x="129.566" y="238.916" style="fill:#5D89D8;" width="252.876" height="50.552"/>
<path style="opacity:0.1;enable-background:new    ;" d="M146.284,306.747v-93.783c0-6.018,4.923-10.94,10.94-10.94h-16.719
	c-6.018,0-10.941,4.923-10.941,10.94v93.783c0,6.018,4.924,10.941,10.941,10.941h16.719
	C151.206,317.688,146.284,312.764,146.284,306.747z"/>
<g>
	<path style="fill:#E5E5E5;" d="M158.095,272.138c-2.088,0-4.145-0.85-5.619-2.323c-1.485-1.485-2.333-3.532-2.333-5.621
		c0-2.1,0.85-4.147,2.333-5.632c1.474-1.473,3.532-2.323,5.619-2.323c2.1,0,4.147,0.85,5.622,2.323
		c1.485,1.485,2.332,3.532,2.332,5.632c0,2.089-0.847,4.136-2.332,5.621C162.241,271.29,160.194,272.138,158.095,272.138z"/>
	<path style="fill:#E5E5E5;" d="M207.217,272.138c-2.09,0-4.147-0.85-5.621-2.323c-1.486-1.485-2.332-3.532-2.332-5.621
		c0-2.1,0.847-4.147,2.332-5.632c1.473-1.473,3.531-2.323,5.621-2.323c2.089,0,4.146,0.85,5.62,2.323
		c1.484,1.485,2.332,3.532,2.332,5.632c0,2.089-0.85,4.136-2.332,5.621C211.363,271.29,209.306,272.138,207.217,272.138z"/>
	<path style="fill:#E5E5E5;" d="M256.337,272.138c-2.089,0-4.147-0.85-5.621-2.323c-1.485-1.485-2.332-3.532-2.332-5.621
		c0-2.1,0.848-4.147,2.332-5.632c1.473-1.473,3.532-2.323,5.621-2.323c2.09,0,4.147,0.85,5.62,2.323
		c1.486,1.485,2.333,3.532,2.333,5.632c0,2.089-0.847,4.136-2.333,5.621C260.485,271.29,258.427,272.138,256.337,272.138z"/>
	<path style="fill:#E5E5E5;" d="M305.459,272.138c-2.1,0-4.146-0.85-5.621-2.323c-1.485-1.485-2.333-3.532-2.333-5.621
		c0-2.1,0.849-4.147,2.333-5.632c1.474-1.473,3.52-2.323,5.621-2.323c2.089,0,4.146,0.85,5.622,2.323
		c1.484,1.485,2.333,3.532,2.333,5.632c0,2.089-0.849,4.136-2.333,5.621C309.605,271.29,307.548,272.138,305.459,272.138z"/>
	<path style="fill:#E5E5E5;" d="M354.581,272.138c-2.1,0-4.147-0.85-5.631-2.323c-1.474-1.485-2.323-3.532-2.323-5.621
		c0-2.1,0.847-4.147,2.323-5.632c1.484-1.473,3.531-2.323,5.631-2.323c2.089,0,4.136,0.85,5.621,2.323
		c1.485,1.485,2.332,3.532,2.332,5.632c0,2.089-0.848,4.136-2.332,5.621C358.717,271.29,356.67,272.138,354.581,272.138z"/>
</g>
<path style="fill:#4351B5;" d="M256.001,417.826c-26.006,0-47.087,21.082-47.087,47.087c0,26.004,21.082,47.087,47.087,47.087
	c26.006,0,47.087-21.083,47.087-47.087C303.088,438.908,282.007,417.826,256.001,417.826z M256.001,480.742
	c-8.743,0-15.828-7.087-15.828-15.828s7.085-15.828,15.828-15.828c8.743,0,15.828,7.087,15.828,15.828
	C271.829,473.655,264.744,480.742,256.001,480.742z"/>
<g style="opacity:0.1;">
	<path d="M225.697,464.913c0-23.14,16.696-42.366,38.696-46.327c-2.724-0.49-5.526-0.761-8.392-0.761
		c-26.006,0-47.087,21.082-47.087,47.087c0,26.004,21.082,47.087,47.087,47.087c2.865,0,5.668-0.271,8.392-0.761
		C242.392,507.279,225.697,488.052,225.697,464.913z"/>
</g>
<g>
	<path style="fill:#EF3E3B;" d="M317.401,53.519c4.393,0,7.954-3.56,7.954-7.953V10.295l-3.936,3.937
		c-1.056,1.054-2.459,1.634-3.949,1.634c-1.491,0-2.894-0.581-3.948-1.633l-4.075-4.075v35.408
		C309.448,49.959,313.009,53.519,317.401,53.519z"/>
	<path style="fill:#EF3E3B;" d="M276.095,53.519c4.393,0,7.953-3.56,7.953-7.953V10.622l-3.609,3.609
		c-1.055,1.054-2.458,1.634-3.948,1.634c-1.491,0-2.894-0.581-3.948-1.633l-4.402-4.403v35.736
		C268.142,49.959,271.703,53.519,276.095,53.519z"/>
	<path style="fill:#EF3E3B;" d="M239.46,14.232c-1.056,1.054-2.46,1.634-3.949,1.634c-1.491,0-2.894-0.581-3.948-1.633l-4.728-4.727
		v36.06c0,4.393,3.561,7.953,7.954,7.953s7.954-3.56,7.954-7.953V10.948L239.46,14.232z"/>
	<path style="fill:#EF3E3B;" d="M198.48,14.232c-1.055,1.054-2.458,1.634-3.949,1.634c-1.49,0-2.892-0.581-3.947-1.633l-3.938-3.938
		v32.331c0,4.393,3.561,7.953,7.954,7.953c4.392,0,7.953-3.56,7.953-7.953V10.157L198.48,14.232z"/>
	<path style="fill:#EF3E3B;" d="M157.503,14.232c-1.055,1.054-2.46,1.634-3.949,1.634c-1.491,0-2.894-0.581-3.948-1.633
		l-4.264-4.265v32.659c0,4.393,3.561,7.953,7.953,7.953c4.394,0,7.954-3.56,7.954-7.953V10.485L157.503,14.232z"/>
</g>
<g>
</g>
<g>
</g>
<g>
</g>
<g>
</g>
<g>
</g>
<g>
</g>
<g>
</g>
<g>
</g>
<g>
</g>
<g>
</g>
<g>
</g>
<g>
</g>
<g>
</g>
<g>
</g>
<g>
</g>
</svg>
